<svg id="logo_vertical_color" xmlns="http://www.w3.org/2000/svg" width="83.176" height="50" viewBox="0 0 83.176 50">
  <path id="Caminho_5428" data-name="Caminho 5428" d="M208.047,122.261a1.55,1.55,0,0,1,.99.948,2.836,2.836,0,0,1,.28,1.24,4.922,4.922,0,0,1-.661,2.212,3.646,3.646,0,0,1-1.219,1.276,2.853,2.853,0,0,1-1.549.62,1.067,1.067,0,0,1-.94-.729,3.077,3.077,0,0,1-.254-1.24,2.716,2.716,0,0,1,.1-.778q1.092-3.013,3.251-3.548m8.509-2.127a1.55,1.55,0,0,1,.991.948,2.838,2.838,0,0,1,.279,1.239,4.927,4.927,0,0,1-.66,2.212,3.643,3.643,0,0,1-1.219,1.276,2.85,2.85,0,0,1-1.549.62,1.067,1.067,0,0,1-.94-.729,3.076,3.076,0,0,1-.254-1.24,2.721,2.721,0,0,1,.1-.778Q214.4,120.669,216.556,120.134Zm-15.685,12.183c.136-.516.273-1.031,1.33-.441s.921,1.106.785,1.621c-.007.027-2.561,9.5,3.989,9.663,8.21.208,10.673-13.021,10.681-13.06.1-.52.2-1.04,1.264-.472s.963,1.089.862,1.609c-.007.039-2.567,13.814-11.566,13.586C197.555,144.552,200.861,132.352,200.871,132.317Zm6.541-12.024q-2.388.17-4.318,4.35a4.735,4.735,0,0,0,.152,4.254,3.144,3.144,0,0,0,1.321,1.337,2.236,2.236,0,0,0,1.067.243,5.424,5.424,0,0,0,3.657-1.58,5.531,5.531,0,0,0,1.934-3.685,4.709,4.709,0,0,0,.53,1.557,3.145,3.145,0,0,0,1.321,1.337,2.243,2.243,0,0,0,1.067.243,6.062,6.062,0,0,0,5.613-5.761,6.762,6.762,0,0,0-.051-.826,4.145,4.145,0,0,0-1.651-2.892,3.052,3.052,0,0,0-2.134-.7q-2.388.17-4.318,4.351a4.747,4.747,0,0,0-.4,1.425c0-.017,0-.034-.006-.052A4.147,4.147,0,0,0,209.545,121,3.05,3.05,0,0,0,207.412,120.293Z" transform="translate(-157.376 -107.732)" fill="#fe5100"/>
  <path id="Caminho_5429" data-name="Caminho 5429" d="M162.679,117.164q-.052.829-.991.855-1.252,0-1.252-1.606,0-.259.026-.622.157-1.658.157-3.16,0-2.721-.548-3.058a.755.755,0,0,0-.339-.078q-.939,0-2.583,1.606a10.086,10.086,0,0,0-2.061,2.669,6.562,6.562,0,0,0-.6,3.343,1.9,1.9,0,0,1-.3,1.438,1.239,1.239,0,0,1-1,.505,1.129,1.129,0,0,1-.809-.324,1.177,1.177,0,0,1-.339-.894,2.208,2.208,0,0,1,.157-.777,7.371,7.371,0,0,0,.261-1.191q.015-.556.043-1.22l-.173.112a29.221,29.221,0,0,1-4.1,2.2,11.95,11.95,0,0,1-4.591,1.166,3.543,3.543,0,0,1-2.947-1.244,2.646,2.646,0,0,1-.548-1.684q0-2.176,2.3-4.845,2.165-2.54,3.887-2.8a4.036,4.036,0,0,1,.6-.052q1.226,0,1.226.855a1.676,1.676,0,0,1-.5,1.1,1.408,1.408,0,0,1-1.043.557,3.714,3.714,0,0,1-.47-.052.732.732,0,0,0-.391,0,4.731,4.731,0,0,0-2.192,1.969,5.661,5.661,0,0,0-1.252,3.032q0,1.321,1.513,1.321a12.348,12.348,0,0,0,4.7-1.477q1.965-1.084,4.088-2.258.133-2.332.373-5.547.131-1.839.365-4.69.208-1.944,1.1-1.891,1.3.078,1.174,1.606-.182.984-.522,3.7-.157,1.762-.418,5.311,3.287-3.7,5.478-3.7a2.227,2.227,0,0,1,.7.1q1.852.673,1.852,6.348,0,.984-.078,2.1a12.608,12.608,0,0,1,.052,1.27m-32.2,5.042q0-.208-1.1-.207a37.177,37.177,0,0,0-3.808.285q-2.114.233-2.557.337a17.839,17.839,0,0,1-2.061.259q-.13,1.943-.313,5.311a62.019,62.019,0,0,0,5.713-2.643Q130.455,123.372,130.48,122.206Zm2.192-1.27a1.471,1.471,0,0,1,.313.907q0,2.047-4.539,4.767a66.715,66.715,0,0,1-8.009,4.016q-.234,3.316-.234,5.026a9.089,9.089,0,0,0,.065.907q.065.6.065.881a1.606,1.606,0,0,1-.365,1.14,1.143,1.143,0,0,1-.861.389,1.012,1.012,0,0,1-1.1-1.011,5.892,5.892,0,0,1,.052-.985q.027-1.451.235-5.83a.567.567,0,0,1-.183-.492,1.535,1.535,0,0,1,.209-.673q.392-4.482.392-6.425a4.827,4.827,0,0,0-.131-1.451.911.911,0,0,1-.078-.363,1.515,1.515,0,0,1,.4-1.011,1.18,1.18,0,0,1,.9-.466,1.277,1.277,0,0,1,.744.207,1.322,1.322,0,0,0,.456.233q.1.027,1.826-.155a59.12,59.12,0,0,1,5.947-.415Q132.072,120.134,132.672,120.937Zm2.531,9.1q-.261,2.539-.574,6.037a5.087,5.087,0,0,0,.261,1.658,1.4,1.4,0,0,1,.053.389,1.257,1.257,0,0,1-.339.868,1.029,1.029,0,0,1-.783.375.97.97,0,0,1-.731-.337,3.9,3.9,0,0,1-.417-2.384q.078-1.425.235-4.923.052-1.659.078-1.866.208-1.269.939-1.321a1.125,1.125,0,0,1,.939.428A1.4,1.4,0,0,1,135.2,130.032Zm15.534,3.5a11.142,11.142,0,0,1-1.852,1.322,29.161,29.161,0,0,1-4.1,2.2,11.941,11.941,0,0,1-4.591,1.166,3.543,3.543,0,0,1-2.947-1.244,2.648,2.648,0,0,1-.548-1.684q0-2.176,2.3-4.845,2.165-2.539,3.887-2.8a4.035,4.035,0,0,1,.6-.052q1.226,0,1.226.855a1.676,1.676,0,0,1-.5,1.1,1.41,1.41,0,0,1-1.044.557,3.718,3.718,0,0,1-.469-.052.721.721,0,0,0-.391,0,4.727,4.727,0,0,0-2.191,1.969,5.657,5.657,0,0,0-1.252,3.031q0,1.322,1.513,1.321a12.345,12.345,0,0,0,4.7-1.476q2.114-1.166,4.409-2.436a1.335,1.335,0,0,1,.365-.052.834.834,0,0,1,.691.363A.911.911,0,0,1,150.737,133.529Zm8.4-5.441a5.261,5.261,0,0,1-.535-.039q-.352-.038-.43-.039a18.956,18.956,0,0,0-3.574.492,59.843,59.843,0,0,0-.574,7.151,8.94,8.94,0,0,0,.1,1.606,1.7,1.7,0,0,1,.078.492q0,.984-.939.985a1.474,1.474,0,0,1-1.056-.479,1.572,1.572,0,0,1-.431-1.283q0-1.347.287-5.208.1-.881.339-2.8a6.4,6.4,0,0,0-1.409.518q-.026.026-1.252.829a.89.89,0,0,1-.7.181q-1.1-.258-1.1-1.114a1.082,1.082,0,0,1,.469-.881,12.455,12.455,0,0,1,4.33-1.71q.339-2.124.574-4.508-.026.285-.026-1.114,0-1.322.965-1.321,1.174,0,1.174,2.331a37.288,37.288,0,0,1-.522,4.223,16.5,16.5,0,0,1,3.731-.182q1.46.1,1.461,1.037Q160.1,128.062,159.137,128.088Zm-24.752-3.627a1.11,1.11,0,0,0-.645.342,1.153,1.153,0,0,0-.408.9q0,1.2,1.1,1.2,1.16,0,1.161-1.217a1.4,1.4,0,0,0-.322-.907A.887.887,0,0,0,134.385,124.461Zm66.274,5.667a1.074,1.074,0,0,1,.521.907,1.45,1.45,0,0,1-.756,1.244q-.026.025-1.147.881-3.991,3.031-6.313,3.032a3.689,3.689,0,0,1-2.974-1.685,5.332,5.332,0,0,1-1.2-3.316,4.689,4.689,0,0,1,.59-2.31,1.218,1.218,0,0,1-.728.244,1.689,1.689,0,0,1-.5-.1,1.658,1.658,0,0,0-.47-.1.842.842,0,0,0-.469.156q-2.191,1.218-4.982,5.492a4.465,4.465,0,0,0-.613,2.06,4.261,4.261,0,0,1-.326,1.593,1.019,1.019,0,0,1-.861.414,1.389,1.389,0,0,1-1.017-.414,1.141,1.141,0,0,1-.313-.829,6.04,6.04,0,0,1,.078-.881,23.92,23.92,0,0,0,.443-4.4,11.147,11.147,0,0,0-.574-3.835.751.751,0,0,1-.052-.285.77.77,0,0,1,.365-.647,1.408,1.408,0,0,1,.835-.259,1.19,1.19,0,0,1,.835.311q.574.518.626,2.643.026,1.011.026,1.891a19.279,19.279,0,0,1,4.539-4.482,3.3,3.3,0,0,1,1.669-.466,3.88,3.88,0,0,1,1.226.207,1.013,1.013,0,0,1,.392.4,1.205,1.205,0,0,1,.209.661.871.871,0,0,1-.008.112,6.838,6.838,0,0,1,1.528-1.493,8.007,8.007,0,0,1,4.852-1.632,5.026,5.026,0,0,1,2.53.6.439.439,0,0,1,.235.415q0,.7-1.2,1.891a7.828,7.828,0,0,1-2.426,1.71,20.431,20.431,0,0,1-4.252,1.011,3.223,3.223,0,0,0,.522,2.176,1.982,1.982,0,0,0,1.8,1.166,7.576,7.576,0,0,0,3.365-1.5,12.813,12.813,0,0,0,2.269-1.71q.6-1.062,1.148-1.062A1.066,1.066,0,0,1,200.659,130.128Zm-4.617-2.979a5.2,5.2,0,0,0-2.348.544,6.693,6.693,0,0,0-1.852,1.27,20.123,20.123,0,0,0,2.374-.622A6.4,6.4,0,0,0,196.042,127.148Zm-11.163-24.506q-.444,3.42-.887,6.84a61.614,61.614,0,0,0-.469,6.892q0,1.036.052,1.995a2.947,2.947,0,0,1-.247,1.425.938.938,0,0,1-.848.673,1.453,1.453,0,0,1-.861-.363q-.261-.233-.261-1.943,0-2.15.418-6.736.261-2.539.522-5.1.1-1.477.287-3.938a4.378,4.378,0,0,1,.391-1.969,1.144,1.144,0,0,1,.861-.388,1.051,1.051,0,0,1,.874.479A3.5,3.5,0,0,1,184.879,102.642Zm-44.687,8.349a4.34,4.34,0,0,1-1.8,3.29,17.022,17.022,0,0,1-3.443,2.124,11.67,11.67,0,0,0-1.93,1.011q-.261.984-1.566.985-1.278,0-1.487-.648a1.584,1.584,0,0,1-.1-.544,1.271,1.271,0,0,1,.522-1.036,2.063,2.063,0,0,1,.913-.415,11.476,11.476,0,0,0,4.1-1.814Q138,112.286,138,111.3q0-1.58-3.261-2.461-3.052-.673-6.078-1.347-3.287-.959-3.287-2.695a4.663,4.663,0,0,1,2.035-3.576,13.9,13.9,0,0,1,4.2-2.254,10.676,10.676,0,0,1,3.548-.777,3.443,3.443,0,0,1,1.774.389,5.6,5.6,0,0,1,1.122,1.3.6.6,0,0,1,.078.311.922.922,0,0,1-.326.673,1.111,1.111,0,0,1-.8.311,1.26,1.26,0,0,1-.835-.337,1.991,1.991,0,0,0-.678-.441,11.35,11.35,0,0,0-4.8,1.321q-2.973,1.425-2.974,2.694,0,.856,3.209,1.581,4.826,1.114,6,1.555Q140.167,108.84,140.193,110.991Z" transform="translate(-118.005 -98.19)" fill="#1d1d1b"/>
  <path id="Caminho_5430" data-name="Caminho 5430" d="M251.189,102.066h.359a1.913,1.913,0,0,0,.437-.028.261.261,0,0,0,.136-.1.3.3,0,0,0,.049-.175.277.277,0,0,0-.065-.191.3.3,0,0,0-.183-.092c-.039-.005-.158-.008-.355-.008h-.378Zm-.486,1.351v-2.34h1.022a1.8,1.8,0,0,1,.56.063.554.554,0,0,1,.28.224.663.663,0,0,1,.1.369.617.617,0,0,1-.159.435.774.774,0,0,1-.476.216,1.14,1.14,0,0,1,.26.2,2.715,2.715,0,0,1,.276.38l.294.456h-.581l-.351-.509a3.309,3.309,0,0,0-.256-.344.379.379,0,0,0-.146-.1.836.836,0,0,0-.245-.026h-.1v.977Z" transform="translate(-181.428 -99.57)" fill="#1d1d1b"/>
  <path id="Caminho_5431" data-name="Caminho 5431" d="M250.464,99.5h0a1.872,1.872,0,0,0-1.3.528h0a1.767,1.767,0,0,0-.542,1.27h0a1.767,1.767,0,0,0,.542,1.269h0a1.867,1.867,0,0,0,1.305.527h0a1.868,1.868,0,0,0,1.3-.527,1.768,1.768,0,0,0,.543-1.27h0a1.77,1.77,0,0,0-.542-1.269,1.87,1.87,0,0,0-1.306-.528m0-.407h0a2.294,2.294,0,0,1,1.6.647,2.172,2.172,0,0,1,.665,1.557h0a2.169,2.169,0,0,1-.665,1.558,2.291,2.291,0,0,1-1.6.646h0a2.29,2.29,0,0,1-1.6-.647h0a2.168,2.168,0,0,1-.665-1.557h0a2.167,2.167,0,0,1,.666-1.557h0a2.292,2.292,0,0,1,1.6-.647Z" transform="translate(-180.231 -98.623)" fill="#1d1d1b"/>
  <path id="Caminho_5432" data-name="Caminho 5432" d="M121.316,187.1h.467v2.03a2.449,2.449,0,0,1-.118.845,1.049,1.049,0,0,1-.432.506,1.517,1.517,0,0,1-.821.2,1.622,1.622,0,0,1-.806-.172.978.978,0,0,1-.452-.492,2.4,2.4,0,0,1-.133-.884V187.1h.467v2.03a2.1,2.1,0,0,0,.084.678.673.673,0,0,0,.295.334,1,1,0,0,0,.506.118.976.976,0,0,0,.727-.231,1.378,1.378,0,0,0,.217-.9Zm1.19,3.519v-2.551h.388v.359a.886.886,0,0,1,.32-.3.922.922,0,0,1,.452-.113.824.824,0,0,1,.462.118.611.611,0,0,1,.255.329.923.923,0,0,1,.791-.447.761.761,0,0,1,.585.211.881.881,0,0,1,.207.644v1.749h-.433v-1.607a1.153,1.153,0,0,0-.044-.374.361.361,0,0,0-.152-.182.488.488,0,0,0-.26-.069.612.612,0,0,0-.447.177.8.8,0,0,0-.177.575v1.479h-.432v-1.656a.749.749,0,0,0-.1-.433.414.414,0,0,0-.349-.143.629.629,0,0,0-.335.093.553.553,0,0,0-.226.285,1.64,1.64,0,0,0-.069.531v1.322Zm5.461,0v-2.551h.388v.359a.89.89,0,0,1,.32-.3.922.922,0,0,1,.452-.113.824.824,0,0,1,.462.118.611.611,0,0,1,.255.329.923.923,0,0,1,.791-.447.763.763,0,0,1,.585.211.883.883,0,0,1,.206.644v1.749h-.433v-1.607a1.153,1.153,0,0,0-.044-.374.361.361,0,0,0-.152-.182.488.488,0,0,0-.261-.069.612.612,0,0,0-.447.177.8.8,0,0,0-.177.575v1.479h-.432v-1.656a.749.749,0,0,0-.1-.433.414.414,0,0,0-.349-.143.629.629,0,0,0-.335.093.553.553,0,0,0-.226.285,1.642,1.642,0,0,0-.068.531v1.322Zm3.933-1.277a1.329,1.329,0,0,1,.393-1.047,1.2,1.2,0,0,1,.8-.28,1.132,1.132,0,0,1,.86.344,1.3,1.3,0,0,1,.334.949,1.673,1.673,0,0,1-.147.772,1.046,1.046,0,0,1-.428.437,1.223,1.223,0,0,1-.619.157,1.144,1.144,0,0,1-.865-.344A1.355,1.355,0,0,1,131.9,189.337Zm.442,0a1.062,1.062,0,0,0,.216.727.683.683,0,0,0,.536.246.7.7,0,0,0,.54-.246,1.1,1.1,0,0,0,.211-.742,1.062,1.062,0,0,0-.216-.718.717.717,0,0,0-1.072,0A1.077,1.077,0,0,0,132.342,189.342Zm2.453,1.273v-2.551h.388v.359a.886.886,0,0,1,.319-.3.922.922,0,0,1,.452-.113.826.826,0,0,1,.462.118.611.611,0,0,1,.255.329.923.923,0,0,1,.791-.447.761.761,0,0,1,.585.211.881.881,0,0,1,.207.644v1.749h-.433v-1.607a1.153,1.153,0,0,0-.044-.374.363.363,0,0,0-.152-.182.49.49,0,0,0-.26-.069.612.612,0,0,0-.447.177.8.8,0,0,0-.177.575v1.479h-.432v-1.656a.749.749,0,0,0-.1-.433.415.415,0,0,0-.349-.143.627.627,0,0,0-.334.093.55.55,0,0,0-.226.285,1.625,1.625,0,0,0-.069.531v1.322Zm5.834-.825.447.059a1.085,1.085,0,0,1-.388.6,1.183,1.183,0,0,1-.727.216,1.152,1.152,0,0,1-.885-.344,1.332,1.332,0,0,1-.329-.963,1.4,1.4,0,0,1,.329-1,1.123,1.123,0,0,1,.86-.354,1.071,1.071,0,0,1,.831.349,1.375,1.375,0,0,1,.324.978v.113h-1.9a.978.978,0,0,0,.235.644.711.711,0,0,0,.536.221.659.659,0,0,0,.4-.128A.812.812,0,0,0,140.63,189.789Zm-1.415-.693h1.42a.869.869,0,0,0-.162-.481.66.66,0,0,0-.536-.251.674.674,0,0,0-.5.2A.789.789,0,0,0,139.214,189.1Zm2.409,1.519v-2.551h.388v.364a.913.913,0,0,1,.811-.418,1.073,1.073,0,0,1,.422.084.671.671,0,0,1,.29.216.817.817,0,0,1,.133.32,2.6,2.6,0,0,1,.025.418v1.568h-.432v-1.548a1.171,1.171,0,0,0-.05-.4.42.42,0,0,0-.176-.206.562.562,0,0,0-.3-.079.687.687,0,0,0-.472.177.855.855,0,0,0-.2.663v1.391Zm3.672-.388.059.383a1.7,1.7,0,0,1-.324.039.732.732,0,0,1-.364-.074.412.412,0,0,1-.182-.2,1.575,1.575,0,0,1-.054-.512V188.4h-.319v-.334h.319v-.629l.433-.261v.89h.432v.334h-.432v1.494a.721.721,0,0,0,.025.236.183.183,0,0,0,.074.089.3.3,0,0,0,.147.029A1.049,1.049,0,0,0,145.295,190.227Zm.266-.89a1.329,1.329,0,0,1,.393-1.047,1.2,1.2,0,0,1,.8-.28,1.132,1.132,0,0,1,.86.344,1.3,1.3,0,0,1,.334.949,1.673,1.673,0,0,1-.147.772,1.046,1.046,0,0,1-.428.437,1.223,1.223,0,0,1-.619.157,1.144,1.144,0,0,1-.865-.344A1.355,1.355,0,0,1,145.56,189.337Zm.442,0a1.062,1.062,0,0,0,.216.727.683.683,0,0,0,.536.246.7.7,0,0,0,.54-.246,1.1,1.1,0,0,0,.211-.742,1.062,1.062,0,0,0-.216-.718.717.717,0,0,0-1.072,0A1.077,1.077,0,0,0,146,189.342Zm2.576,1.273v-.491h.492v.491Zm4.969-3.519h.467v2.03a2.461,2.461,0,0,1-.118.845,1.051,1.051,0,0,1-.433.506,1.516,1.516,0,0,1-.821.2,1.62,1.62,0,0,1-.806-.172.978.978,0,0,1-.452-.492,2.385,2.385,0,0,1-.133-.884V187.1h.467v2.03a2.088,2.088,0,0,0,.083.678.671.671,0,0,0,.295.334,1,1,0,0,0,.506.118.978.978,0,0,0,.727-.231,1.378,1.378,0,0,0,.216-.9Zm1.19,3.519v-2.551h.388v.359a.894.894,0,0,1,.32-.3.922.922,0,0,1,.452-.113.825.825,0,0,1,.462.118.609.609,0,0,1,.256.329.921.921,0,0,1,.791-.447.762.762,0,0,1,.585.211.881.881,0,0,1,.206.644v1.749h-.432v-1.607a1.134,1.134,0,0,0-.044-.374.361.361,0,0,0-.152-.182.488.488,0,0,0-.26-.069.61.61,0,0,0-.447.177.8.8,0,0,0-.177.575v1.479h-.433v-1.656a.749.749,0,0,0-.1-.433.413.413,0,0,0-.349-.143.627.627,0,0,0-.334.093.55.55,0,0,0-.226.285,1.626,1.626,0,0,0-.069.531v1.322Zm7.128-.933.423.059a1.087,1.087,0,0,1-.354.683,1.055,1.055,0,0,1-.7.246,1.083,1.083,0,0,1-.84-.344,1.378,1.378,0,0,1-.319-.978,1.713,1.713,0,0,1,.137-.717.946.946,0,0,1,.418-.467,1.211,1.211,0,0,1,.6-.152,1.037,1.037,0,0,1,.678.211.953.953,0,0,1,.339.6l-.418.064a.694.694,0,0,0-.211-.388.569.569,0,0,0-.369-.127.67.67,0,0,0-.53.231,1.105,1.105,0,0,0-.207.742,1.14,1.14,0,0,0,.2.747.653.653,0,0,0,.516.231.608.608,0,0,0,.423-.157A.761.761,0,0,0,161.865,189.681Zm.782.933V187.1h.432v3.519Zm1.1-3.027V187.1h.432v.491Zm0,3.027v-2.551h.432v2.551Zm2.757-.933.422.059a1.084,1.084,0,0,1-.353.683,1.056,1.056,0,0,1-.7.246,1.084,1.084,0,0,1-.84-.344,1.38,1.38,0,0,1-.319-.978,1.713,1.713,0,0,1,.138-.717.947.947,0,0,1,.418-.467,1.214,1.214,0,0,1,.6-.152,1.038,1.038,0,0,1,.679.211.955.955,0,0,1,.339.6l-.418.064a.693.693,0,0,0-.211-.388.57.57,0,0,0-.369-.127.67.67,0,0,0-.531.231,1.108,1.108,0,0,0-.206.742,1.144,1.144,0,0,0,.2.747.655.655,0,0,0,.516.231.608.608,0,0,0,.423-.157A.764.764,0,0,0,166.506,189.681Zm.791.933V187.1h.433V189.1l1.022-1.037h.56l-.973.949,1.072,1.6h-.531l-.85-1.3-.3.29v1.012Zm2.581,0v-.491h.491v.491Zm4.969-3.519h.467v2.03a2.449,2.449,0,0,1-.118.845,1.05,1.05,0,0,1-.432.506,1.517,1.517,0,0,1-.821.2,1.621,1.621,0,0,1-.806-.172.978.978,0,0,1-.452-.492,2.4,2.4,0,0,1-.133-.884V187.1h.467v2.03a2.1,2.1,0,0,0,.084.678.673.673,0,0,0,.295.334,1,1,0,0,0,.506.118.976.976,0,0,0,.727-.231,1.378,1.378,0,0,0,.217-.9Zm1.19,3.519v-2.551h.388v.359a.886.886,0,0,1,.319-.3.922.922,0,0,1,.452-.113.824.824,0,0,1,.462.118.611.611,0,0,1,.255.329.923.923,0,0,1,.791-.447.761.761,0,0,1,.585.211.881.881,0,0,1,.207.644v1.749h-.433v-1.607a1.152,1.152,0,0,0-.044-.374.361.361,0,0,0-.152-.182.489.489,0,0,0-.26-.069.612.612,0,0,0-.447.177.8.8,0,0,0-.177.575v1.479h-.432v-1.656a.749.749,0,0,0-.1-.433.414.414,0,0,0-.349-.143.628.628,0,0,0-.334.093.553.553,0,0,0-.226.285,1.625,1.625,0,0,0-.069.531v1.322Zm5.761-.319a1.694,1.694,0,0,1-.462.29,1.383,1.383,0,0,1-.477.083.936.936,0,0,1-.649-.206.661.661,0,0,1-.226-.521.736.736,0,0,1,.083-.344.722.722,0,0,1,.226-.246,1.108,1.108,0,0,1,.31-.143,3.7,3.7,0,0,1,.388-.064,3.745,3.745,0,0,0,.772-.147v-.113a.457.457,0,0,0-.123-.369.718.718,0,0,0-.492-.147.748.748,0,0,0-.452.108.652.652,0,0,0-.216.378l-.423-.059a1.029,1.029,0,0,1,.192-.437.865.865,0,0,1,.384-.261,1.733,1.733,0,0,1,.58-.088,1.48,1.48,0,0,1,.53.078.664.664,0,0,1,.3.192.746.746,0,0,1,.137.295,2.41,2.41,0,0,1,.02.4v.57a5.8,5.8,0,0,0,.029.762.9.9,0,0,0,.1.31h-.452A1,1,0,0,1,181.8,190.295Zm-.034-.958a3.162,3.162,0,0,1-.708.162,1.81,1.81,0,0,0-.379.084.411.411,0,0,0-.172.143.36.36,0,0,0-.059.2.37.37,0,0,0,.133.29.585.585,0,0,0,.383.113.87.87,0,0,0,.443-.108.645.645,0,0,0,.285-.3.969.969,0,0,0,.074-.428Zm2.468,1.277V187.1h.433v1.268a.955.955,0,0,1,.762-.354.965.965,0,0,1,.487.113.641.641,0,0,1,.3.3,1.454,1.454,0,0,1,.089.57v1.617h-.433V189a.667.667,0,0,0-.137-.471.522.522,0,0,0-.4-.148.731.731,0,0,0-.359.1.573.573,0,0,0-.236.27,1.218,1.218,0,0,0-.074.472v1.391Zm2.733-3.027V187.1h.432v.491Zm0,3.027v-2.551h.432v2.551Zm.919-.762.428-.069a.611.611,0,0,0,.2.394.693.693,0,0,0,.462.137.67.67,0,0,0,.443-.123.361.361,0,0,0,.143-.285.261.261,0,0,0-.128-.226,1.954,1.954,0,0,0-.442-.148,3.788,3.788,0,0,1-.659-.206.657.657,0,0,1-.28-.246.666.666,0,0,1-.093-.339.638.638,0,0,1,.078-.314.718.718,0,0,1,.211-.241.89.89,0,0,1,.275-.128,1.32,1.32,0,0,1,.374-.049,1.457,1.457,0,0,1,.526.088.689.689,0,0,1,.334.231.921.921,0,0,1,.148.4l-.423.059a.459.459,0,0,0-.167-.31.572.572,0,0,0-.388-.113.709.709,0,0,0-.422.1.288.288,0,0,0-.128.231.265.265,0,0,0,.054.152.384.384,0,0,0,.162.113c.044.015.172.054.383.108a6.54,6.54,0,0,1,.639.2.653.653,0,0,1,.285.226.626.626,0,0,1,.1.369.7.7,0,0,1-.128.408.784.784,0,0,1-.363.295,1.32,1.32,0,0,1-.536.1,1.2,1.2,0,0,1-.756-.206A.949.949,0,0,1,187.883,189.853Zm3.569.374.059.383a1.7,1.7,0,0,1-.324.039.732.732,0,0,1-.364-.074.412.412,0,0,1-.182-.2,1.575,1.575,0,0,1-.054-.512V188.4h-.32v-.334h.32v-.629l.433-.261v.89h.432v.334h-.432v1.494a.721.721,0,0,0,.025.236.183.183,0,0,0,.074.089.3.3,0,0,0,.147.029A1.048,1.048,0,0,0,191.452,190.227Zm.266-.89a1.329,1.329,0,0,1,.393-1.047,1.2,1.2,0,0,1,.8-.28,1.131,1.131,0,0,1,.86.344,1.3,1.3,0,0,1,.334.949,1.673,1.673,0,0,1-.147.772,1.047,1.047,0,0,1-.428.437,1.223,1.223,0,0,1-.619.157,1.145,1.145,0,0,1-.865-.344A1.355,1.355,0,0,1,191.718,189.337Zm.442,0a1.06,1.06,0,0,0,.217.727.682.682,0,0,0,.536.246.7.7,0,0,0,.54-.246,1.1,1.1,0,0,0,.211-.742,1.061,1.061,0,0,0-.216-.718.716.716,0,0,0-1.071,0A1.075,1.075,0,0,0,192.16,189.342Zm.393-1.592.315-.673h.57l-.526.673Zm2.055,2.865v-2.551H195v.388a1.037,1.037,0,0,1,.275-.354.475.475,0,0,1,.28-.088.84.84,0,0,1,.442.137l-.152.4a.653.653,0,0,0-.315-.089.433.433,0,0,0-.256.084.471.471,0,0,0-.157.236,1.662,1.662,0,0,0-.074.506v1.332Zm1.642-3.027V187.1h.433v.491Zm0,3.027v-2.551h.433v2.551Zm2.757-.319a1.678,1.678,0,0,1-.462.29,1.383,1.383,0,0,1-.477.083.937.937,0,0,1-.649-.206.661.661,0,0,1-.226-.521.742.742,0,0,1,.084-.344.727.727,0,0,1,.226-.246,1.106,1.106,0,0,1,.31-.143,3.685,3.685,0,0,1,.388-.064,3.737,3.737,0,0,0,.772-.147v-.113a.457.457,0,0,0-.123-.369.717.717,0,0,0-.491-.147.75.75,0,0,0-.453.108.652.652,0,0,0-.216.378l-.423-.059a1.03,1.03,0,0,1,.192-.437.86.86,0,0,1,.383-.261,1.733,1.733,0,0,1,.58-.088,1.485,1.485,0,0,1,.531.078.663.663,0,0,1,.3.192.754.754,0,0,1,.138.295,2.493,2.493,0,0,1,.019.4v.57a5.668,5.668,0,0,0,.03.762.887.887,0,0,0,.1.31h-.452A1.029,1.029,0,0,1,199.007,190.295Zm-.035-.958a3.163,3.163,0,0,1-.707.162,1.8,1.8,0,0,0-.379.084.412.412,0,0,0-.172.143.36.36,0,0,0-.059.2.37.37,0,0,0,.133.29.587.587,0,0,0,.384.113.869.869,0,0,0,.442-.108.645.645,0,0,0,.285-.3.968.968,0,0,0,.074-.428Zm1.332.4-.133-1.863V187.1h.536v.781l-.123,1.863Zm-.113.874v-.491h.5v.491Z" transform="translate(-118.491 -140.673)" fill="#1d1d1b"/>
</svg>
